<svg id="Layer_1" data-name="Layer 1" xmlns="http://www.w3.org/2000/svg" viewBox="0 0 64 64"><defs><style>.cls-1{fill:#3b3b3b;}.cls-2{fill:#ba1418;}.cls-3{fill:#dedede;}</style></defs><title>Artboard 1 copy 6</title><polygon class="cls-1" points="64 25.5 59.67 31.5 3.67 31.5 0 25.5 64 25.5"/><path class="cls-2" d="M0,31.5H64a0,0,0,0,1,0,0v20a2,2,0,0,1-2,2H2a2,2,0,0,1-2-2v-20A0,0,0,0,1,0,31.5Z"/><path class="cls-2" d="M2,15.5H62a2,2,0,0,1,2,2v8a0,0,0,0,1,0,0H0a0,0,0,0,1,0,0v-8A2,2,0,0,1,2,15.5Z"/><rect class="cls-3" x="28" y="31.5" width="8" height="4"/><rect class="cls-1" x="30" y="31.5" width="4" height="2"/><rect class="cls-3" x="28" y="21.5" width="8" height="4"/><rect class="cls-1" x="30" y="23.5" width="4" height="2"/><path class="cls-1" d="M20,12.5v3h4v-1H40v1h4v-3a2,2,0,0,0-2-2H22A2,2,0,0,0,20,12.5Z"/></svg>