<svg id="Layer_1" data-name="Layer 1" xmlns="http://www.w3.org/2000/svg" viewBox="0 0 64 64"><defs><style>.cls-1{fill:#dedede;}.cls-2{fill:#eaeaea;}.cls-3{fill:#fff;}.cls-4{fill:#3899c5;}.cls-5{fill:#58b6da;}.cls-6{fill:#1881ce;}.cls-7{fill:#0271c5;}.cls-8{fill:#797979;}</style></defs><title>Artboard 1 copy 7</title><path class="cls-1" d="M32,0A32,32,0,1,0,64,32,32,32,0,0,0,32,0Zm0,62A30,30,0,1,1,62,32,30,30,0,0,1,32,62Z"/><circle class="cls-2" cx="32" cy="32" r="30"/><polygon class="cls-1" points="26.72 22.47 30.34 24.48 32 25.4 32 24 32 4 26.72 22.47"/><polygon class="cls-1" points="33.66 39.52 32.14 38.67 32 38.6 32 38.75 32 40 32 60 37.28 41.53 33.66 39.52"/><polygon class="cls-3" points="37.28 22.47 33.66 24.48 32 25.4 32 24 32 4 37.28 22.47"/><polygon class="cls-3" points="30.34 39.52 31.86 38.67 32 38.6 32 38.75 32 40 32 60 26.72 41.53 30.34 39.52"/><polygon class="cls-1" points="22.47 37.28 24.48 33.66 25.4 32 24 32 4 32 22.47 37.28"/><polygon class="cls-1" points="39.52 30.34 38.67 31.86 38.6 32 38.75 32 40 32 60 32 41.53 26.72 39.52 30.34"/><polygon class="cls-3" points="22.47 26.72 24.48 30.34 25.4 32 24 32 4 32 22.47 26.72"/><polygon class="cls-3" points="39.52 33.66 38.67 32.14 38.6 32 38.75 32 40 32 60 32 41.53 37.28 39.52 33.66"/><polygon class="cls-1" points="17.15 17.15 25.4 32 25.48 32 32 32 17.15 17.15"/><polygon class="cls-3" points="17.15 46.85 25.4 32 25.48 32 32 32 17.15 46.85"/><polygon class="cls-1" points="17.15 46.85 32 38.6 32 38.52 32 32 17.15 46.85"/><polygon class="cls-3" points="46.85 46.85 32 38.6 32 38.52 32 32 46.85 46.85"/><polygon class="cls-1" points="46.85 46.85 38.6 32 38.52 32 32 32 46.85 46.85"/><polygon class="cls-3" points="46.85 17.15 38.6 32 38.52 32 32 32 46.85 17.15"/><polygon class="cls-1" points="46.85 17.15 32 25.4 32 25.48 32 32 46.85 17.15"/><polygon class="cls-3" points="17.15 17.15 32 25.4 32 25.48 32 32 17.15 17.15"/><polygon class="cls-4" points="28 28 12.28 51.88 36 36 51.88 12.28 28 28"/><polygon class="cls-5" points="12.28 51.88 36 36 32.08 32.08 12.28 51.88"/><polygon class="cls-6" points="51.88 12.28 28 28 32.08 32.08 51.88 12.28"/><polygon class="cls-7" points="51.88 12.28 36 36 31.92 31.92 51.88 12.28"/><circle class="cls-8" cx="32" cy="32" r="2"/></svg>